ISO-10303-21;
HEADER;
FILE_DESCRIPTION(('ViewDefinition[DesignTransferView]'),'2;1');
FILE_NAME('/dev/null','2026-10-09T17:11:12+02:00',(''),(''),'IfcOpenShell 0.9.0','IfcOpenShell 0.9.0','Nobody');
FILE_SCHEMA(('IFC4'));
ENDSEC;
DATA;
#1=IFCPERSON('HSeldon','Seldon','Hari',$,$,$,$,$);
#2=IFCORGANIZATION('APTR','Aperture Science',$,$,$);
#3=IFCPERSONANDORGANIZATION(#1,#2,$);
#4=IFCACTORROLE(.USERDEFINED.,'CONTRIBUTOR',$);
#5=IFCORGANIZATION('IfcOpenShell','IfcOpenShell','IfcOpenShell is an open source software library that helps users and software developers to work with IFC data.',(#4),(#6));
#6=IFCTELECOMADDRESS(.USERDEFINED.,$,'WEBPAGE',$,$,$,$,'https://ifcopenshell.org',$);
#7=IFCAPPLICATION(#5,'0.9.0','IfcOpenShell','IfcOpenShell');
#8=IFCOWNERHISTORY(#3,#7,.READWRITE.,.ADDED.,1791558672,#3,#7,1791558672);
#9=IFCPROJECT('3Vr1$8bV53gPFGYVLWG$UH',#8,'B\X2\00E2\X0\timent de d\X2\00E9\X0\monstration',$,$,$,$,(#18),#13);
#10=IFCSIUNIT(*,.LENGTHUNIT.,.MILLI.,.METRE.);
#11=IFCSIUNIT(*,.AREAUNIT.,$,.SQUARE_METRE.);
#12=IFCSIUNIT(*,.VOLUMEUNIT.,$,.CUBIC_METRE.);
#13=IFCUNITASSIGNMENT((#10,#11,#12));
#14=IFCCARTESIANPOINT((0.,0.,0.));
#15=IFCDIRECTION((0.,0.,1.));
#16=IFCDIRECTION((1.,0.,0.));
#17=IFCAXIS2PLACEMENT3D(#14,#15,#16);
#18=IFCGEOMETRICREPRESENTATIONCONTEXT($,'Model',3,1.E-05,#17,#22);
#19=IFCGEOMETRICREPRESENTATIONSUBCONTEXT('Body','Model',*,*,*,*,#18,$,.MODEL_VIEW.,$);
#20=IFCOWNERHISTORY(#3,#7,.READWRITE.,.ADDED.,1791558672,#3,#7,1791558672);
#21=IFCSITE('2yMwu0b6DDtAQIQqwKrrjC',#20,'Campus',$,$,$,$,$,$,(48,51,30,240000),(2,17,40,200000),35000.,$,$);
#22=IFCDIRECTION((0.17364818,0.98480775));
#23=IFCOWNERHISTORY(#3,#7,.READWRITE.,.ADDED.,1791558672,#3,#7,1791558672);
#24=IFCBUILDING('3uLpKVIUr1pgctXvvo5va8',#23,'B\X2\00E2\X0\timent A',$,$,$,$,$,$,$,$,$);
#25=IFCOWNERHISTORY(#3,#7,.READWRITE.,.ADDED.,1791558672,#3,#7,1791558672);
#26=IFCRELAGGREGATES('3luWUpd2v0luwlYqH6yMKF',#25,$,$,#9,(#21));
#27=IFCOWNERHISTORY(#3,#7,.READWRITE.,.ADDED.,1791558672,#3,#7,1791558672);
#28=IFCRELAGGREGATES('3$PJb8dgX1Ee4L7CyjtzbP',#27,$,$,#21,(#24));
#29=IFCMATERIAL('B\X2\00E9\X0\ton',$,$);
#30=IFCSURFACESTYLE('B\X2\00E9\X0\ton',.BOTH.,(#31));
#31=IFCSURFACESTYLESHADING(#32,0.);
#32=IFCCOLOURRGB($,0.62,0.62,0.6);
#33=IFCSTYLEDITEM($,(#30),'B\X2\00E9\X0\ton');
#34=IFCSTYLEDREPRESENTATION(#19,'Body',$,(#33));
#35=IFCMATERIALDEFINITIONREPRESENTATION($,$,(#34),#29);
#36=IFCMATERIAL('Enduit',$,$);
#37=IFCSURFACESTYLE('Enduit',.BOTH.,(#38));
#38=IFCSURFACESTYLESHADING(#39,0.);
#39=IFCCOLOURRGB($,0.87,0.84,0.76);
#40=IFCSTYLEDITEM($,(#37),'Enduit');
#41=IFCSTYLEDREPRESENTATION(#19,'Body',$,(#40));
#42=IFCMATERIALDEFINITIONREPRESENTATION($,$,(#41),#36);
#43=IFCMATERIAL('Bois',$,$);
#44=IFCSURFACESTYLE('Bois',.BOTH.,(#45));
#45=IFCSURFACESTYLESHADING(#46,0.);
#46=IFCCOLOURRGB($,0.5,0.33,0.18);
#47=IFCSTYLEDITEM($,(#44),'Bois');
#48=IFCSTYLEDREPRESENTATION(#19,'Body',$,(#47));
#49=IFCMATERIALDEFINITIONREPRESENTATION($,$,(#48),#43);
#50=IFCMATERIAL('Verre',$,$);
#51=IFCSURFACESTYLE('Verre',.BOTH.,(#52));
#52=IFCSURFACESTYLESHADING(#53,0.65);
#53=IFCCOLOURRGB($,0.45,0.7,0.85);
#54=IFCSTYLEDITEM($,(#51),'Verre');
#55=IFCSTYLEDREPRESENTATION(#19,'Body',$,(#54));
#56=IFCMATERIALDEFINITIONREPRESENTATION($,$,(#55),#50);
#57=IFCOWNERHISTORY(#3,#7,.READWRITE.,.ADDED.,1791558672,#3,#7,1791558672);
#58=IFCWALLTYPE('3qMHxfu19Bsh66NlTcDlms',#57,'Mur b\X2\00E9\X0\ton 20',$,$,(#60),$,$,$,.NOTDEFINED.);
#59=IFCOWNERHISTORY(#3,#7,.READWRITE.,.ADDED.,1791558672,#3,#7,1791558672);
#60=IFCPROPERTYSET('0WUrtZeVz7Ju7z0xa$HeX5',#59,'Pset_WallCommon',$,(#61,#62,#63));
#61=IFCPROPERTYSINGLEVALUE('IsExternal',$,IFCBOOLEAN(.T.),$);
#62=IFCPROPERTYSINGLEVALUE('LoadBearing',$,IFCBOOLEAN(.T.),$);
#63=IFCPROPERTYSINGLEVALUE('FireRating',$,IFCLABEL('REI 120'),$);
#64=IFCOWNERHISTORY(#3,#7,.READWRITE.,.MODIFIED.,1791558672,#3,#7,1791558672);
#65=IFCCOLUMNTYPE('1iu5URdPLBl9NjUmslYpM4',#64,'Poteau \X2\00D8\X0\40',$,$,$,(#80),$,$,.NOTDEFINED.);
#66=IFCCARTESIANPOINT((0.,0.));
#67=IFCAXIS2PLACEMENT2D(#66,$);
#68=IFCCIRCLEPROFILEDEF(.AREA.,$,#67,200.);
#69=IFCCARTESIANPOINT((0.,0.,0.));
#70=IFCDIRECTION((0.,0.,1.));
#71=IFCDIRECTION((1.,0.,0.));
#72=IFCAXIS2PLACEMENT3D(#69,#70,#71);
#73=IFCDIRECTION((0.,0.,1.));
#74=IFCEXTRUDEDAREASOLID(#68,#72,#73,2799.9999999999995);
#75=IFCSHAPEREPRESENTATION(#19,'Body','SweptSolid',(#74));
#76=IFCCARTESIANPOINT((0.,0.,0.));
#77=IFCDIRECTION((1.,0.,0.));
#78=IFCDIRECTION((0.,0.,1.));
#79=IFCAXIS2PLACEMENT3D(#76,#78,#77);
#80=IFCREPRESENTATIONMAP(#79,#75);
#81=IFCOWNERHISTORY(#3,#7,.READWRITE.,.MODIFIED.,1791558672,#3,#7,1791558672);
#82=IFCRELASSOCIATESMATERIAL('0MrCQqUJj92gKbfSk$tS56',#81,$,$,(#493,#65,#99),#29);
#83=IFCOWNERHISTORY(#3,#7,.READWRITE.,.MODIFIED.,1791558672,#3,#7,1791558672);
#84=IFCBUILDINGSTOREY('3Br8f_f9HBefAubA217Mcu',#83,'RDC',$,$,#91,$,$,$,$);
#85=IFCOWNERHISTORY(#3,#7,.READWRITE.,.MODIFIED.,1791558672,#3,#7,1791558672);
#86=IFCRELAGGREGATES('1L1nCKhH15O8WUVgKD7Ywh',#85,$,$,#24,(#84,#480));
#87=IFCCARTESIANPOINT((651200000.,6861500000.,35000.));
#88=IFCDIRECTION((0.,0.,1.));
#89=IFCDIRECTION((1.,0.,0.));
#90=IFCAXIS2PLACEMENT3D(#87,#88,#89);
#91=IFCLOCALPLACEMENT($,#90);
#92=IFCCARTESIANPOINTLIST2D(((0.,0.),(10000.,0.),(10000.,6000.),(0.,6000.)));
#93=IFCINDEXEDPOLYCURVE(#92,$,$);
#94=IFCDIRECTION((0.,0.,1.));
#95=IFCARBITRARYCLOSEDPROFILEDEF(.AREA.,$,#93);
#96=IFCEXTRUDEDAREASOLID(#95,$,#94,200.);
#97=IFCSHAPEREPRESENTATION(#19,'Body','SweptSolid',(#96));
#98=IFCOWNERHISTORY(#3,#7,.READWRITE.,.MODIFIED.,1791558672,#3,#7,1791558672);
#99=IFCSLAB('3_xn_b2hv6bx$BzSROMnQV',#98,'Dalle RDC',$,$,#112,#100,$,$);
#100=IFCPRODUCTDEFINITIONSHAPE($,$,(#97));
#106=IFCOWNERHISTORY(#3,#7,.READWRITE.,.MODIFIED.,1791558672,#3,#7,1791558672);
#107=IFCRELCONTAINEDINSPATIALSTRUCTURE('0xWkcaU8XFf855Gz3wKqFT',#106,$,$,(#344,#190,#282,#252,#222,#131,#99,#384,#324,#364,#302,#434,#404),#84);
#108=IFCCARTESIANPOINT((0.,0.,-199.99999999999574));
#109=IFCDIRECTION((0.,0.,1.));
#110=IFCDIRECTION((1.,0.,0.));
#111=IFCAXIS2PLACEMENT3D(#108,#109,#110);
#112=IFCLOCALPLACEMENT(#91,#111);
#113=IFCOWNERHISTORY(#3,#7,.READWRITE.,.ADDED.,1791558672,#3,#7,1791558672);
#114=IFCELEMENTQUANTITY('3eGHW8B9H4T9$zrIJp4mQH',#113,'Qto_SlabBaseQuantities',$,'BaseQuantities',(#117,#118,#119));
#115=IFCOWNERHISTORY(#3,#7,.READWRITE.,.ADDED.,1791558672,#3,#7,1791558672);
#116=IFCRELDEFINESBYPROPERTIES('3YNrylT8vAdQYkqcmRaJ8O',#115,$,$,(#99),#114);
#117=IFCQUANTITYVOLUME('NetVolume',$,$,12.,$);
#118=IFCQUANTITYAREA('NetArea',$,$,60.,$);
#119=IFCQUANTITYLENGTH('Depth',$,$,200.,$);
#120=IFCCARTESIANPOINTLIST2D(((0.,0.),(0.,200.),(10000.,200.),(10000.,0.),(0.,0.)));
#121=IFCINDEXEDPOLYCURVE(#120,$,.F.);
#122=IFCDIRECTION((0.,0.,1.));
#123=IFCARBITRARYCLOSEDPROFILEDEF(.AREA.,$,#121);
#124=IFCCARTESIANPOINT((0.,0.,0.));
#125=IFCDIRECTION((0.,0.,1.));
#126=IFCDIRECTION((1.,0.,0.));
#127=IFCAXIS2PLACEMENT3D(#124,#125,#126);
#128=IFCEXTRUDEDAREASOLID(#123,#127,#122,2799.9999999999995);
#129=IFCSHAPEREPRESENTATION(#19,'Body','SweptSolid',(#128));
#130=IFCOWNERHISTORY(#3,#7,.READWRITE.,.MODIFIED.,1791558672,#3,#7,1791558672);
#131=IFCWALL('3in8KaThTABvOPhe_9UndS',#130,'Mur sud RDC',$,$,#142,#132,$,$);
#132=IFCPRODUCTDEFINITIONSHAPE($,$,(#129));
#138=IFCCARTESIANPOINT((0.,0.,0.));
#139=IFCDIRECTION((0.,0.,1.));
#140=IFCDIRECTION((1.,0.,0.));
#141=IFCAXIS2PLACEMENT3D(#138,#139,#140);
#142=IFCLOCALPLACEMENT(#91,#141);
#143=IFCOWNERHISTORY(#3,#7,.READWRITE.,.MODIFIED.,1791558672,#3,#7,1791558672);
#144=IFCRELASSOCIATESMATERIAL('3LRvT$oVHCPxjtboJBTP2Z',#143,$,$,(#640,#282,#610,#252,#222,#131,#525,#670),#36);
#145=IFCOWNERHISTORY(#3,#7,.READWRITE.,.MODIFIED.,1791558672,#3,#7,1791558672);
#146=IFCRELDEFINESBYTYPE('1Whhx98KXBkQWb9DTzeP54',#145,$,$,(#640,#282,#610,#252,#222,#131,#525,#670),#58);
#147=IFCOWNERHISTORY(#3,#7,.READWRITE.,.ADDED.,1791558672,#3,#7,1791558672);
#148=IFCELEMENTQUANTITY('3Yr56uk$X7WPSGVX$g5$A$',#147,'Qto_WallBaseQuantities',$,'BaseQuantities',(#151,#152,#153));
#149=IFCOWNERHISTORY(#3,#7,.READWRITE.,.ADDED.,1791558672,#3,#7,1791558672);
#150=IFCRELDEFINESBYPROPERTIES('2WdJOSTbT5tQs$zrY6B9Ku',#149,$,$,(#131),#148);
#151=IFCQUANTITYLENGTH('Length',$,$,10000.,$);
#152=IFCQUANTITYLENGTH('Height',$,$,2800.,$);
#153=IFCQUANTITYVOLUME('NetVolume',$,$,5.6,$);
#154=IFCOWNERHISTORY(#3,#7,.READWRITE.,.MODIFIED.,1791558672,#3,#7,1791558672);
#155=IFCOPENINGELEMENT('1K3Mt3OoTDH94XvRjzxU5L',#154,'R\X2\00E9\X0\servation fen\X2\00EA\X0\tre',$,$,#178,#166,$,$);
#156=IFCCARTESIANPOINTLIST2D(((0.,0.),(0.,400.),(1600.,400.),(1600.,0.),(0.,0.)));
#157=IFCINDEXEDPOLYCURVE(#156,$,.F.);
#158=IFCDIRECTION((0.,0.,1.));
#159=IFCARBITRARYCLOSEDPROFILEDEF(.AREA.,$,#157);
#160=IFCCARTESIANPOINT((0.,0.,0.));
#161=IFCDIRECTION((0.,0.,1.));
#162=IFCDIRECTION((1.,0.,0.));
#163=IFCAXIS2PLACEMENT3D(#160,#161,#162);
#164=IFCEXTRUDEDAREASOLID(#159,#163,#158,1300.);
#165=IFCSHAPEREPRESENTATION(#19,'Body','SweptSolid',(#164));
#166=IFCPRODUCTDEFINITIONSHAPE($,$,(#165));
#172=IFCOWNERHISTORY(#3,#7,.READWRITE.,.ADDED.,1791558672,#3,#7,1791558672);
#173=IFCRELVOIDSELEMENT('2bnvcCEHj3SOu1rhMKAedS',#172,$,$,#131,#155);
#174=IFCCARTESIANPOINT((4199.999999837019,-99.99999962747097,899.9999999999985));
#175=IFCDIRECTION((0.,0.,1.));
#176=IFCDIRECTION((1.,0.,0.));
#177=IFCAXIS2PLACEMENT3D(#174,#175,#176);
#178=IFCLOCALPLACEMENT(#142,#177);
#179=IFCCARTESIANPOINTLIST2D(((0.,0.),(0.,50.),(1600.,50.),(1600.,0.),(0.,0.)));
#180=IFCINDEXEDPOLYCURVE(#179,$,.F.);
#181=IFCDIRECTION((0.,0.,1.));
#182=IFCARBITRARYCLOSEDPROFILEDEF(.AREA.,$,#180);
#183=IFCCARTESIANPOINT((0.,0.,0.));
#184=IFCDIRECTION((0.,0.,1.));
#185=IFCDIRECTION((1.,0.,0.));
#186=IFCAXIS2PLACEMENT3D(#183,#184,#185);
#187=IFCEXTRUDEDAREASOLID(#182,#186,#181,1300.);
#188=IFCSHAPEREPRESENTATION(#19,'Body','SweptSolid',(#187));
#189=IFCOWNERHISTORY(#3,#7,.READWRITE.,.MODIFIED.,1791558672,#3,#7,1791558672);
#190=IFCWINDOW('32WJxf_MfEsxBkhWg9Ginr',#189,'Fen\X2\00EA\X0\tre RDC',$,$,#201,#191,$,$,$,$,$,$);
#191=IFCPRODUCTDEFINITIONSHAPE($,$,(#188));
#197=IFCCARTESIANPOINT((4199.999999837019,75.00000018626451,899.9999999999985));
#198=IFCDIRECTION((0.,0.,1.));
#199=IFCDIRECTION((1.,0.,0.));
#200=IFCAXIS2PLACEMENT3D(#197,#198,#199);
#201=IFCLOCALPLACEMENT(#91,#200);
#202=IFCOWNERHISTORY(#3,#7,.READWRITE.,.MODIFIED.,1791558672,#3,#7,1791558672);
#203=IFCRELASSOCIATESMATERIAL('0bp$EFzon5EwRqx25vwcmO',#202,$,$,(#580,#190),#50);
#204=IFCRELFILLSELEMENT('1EBtplLaDCkQ0jBdR4JY1Z',$,$,$,#155,#190);
#205=IFCOWNERHISTORY(#3,#7,.READWRITE.,.ADDED.,1791558672,#3,#7,1791558672);
#206=IFCPROPERTYSET('3tv2Enhg97MPFhXhEGXnpF',#205,'Pset_WindowCommon',$,(#209,#210));
#207=IFCOWNERHISTORY(#3,#7,.READWRITE.,.ADDED.,1791558672,#3,#7,1791558672);
#208=IFCRELDEFINESBYPROPERTIES('2DNtvJF9f9JxlLV1hUO61M',#207,$,$,(#190),#206);
#209=IFCPROPERTYSINGLEVALUE('ThermalTransmittance',$,IFCTHERMALTRANSMITTANCEMEASURE(1.3),$);
#210=IFCPROPERTYSINGLEVALUE('IsExternal',$,IFCBOOLEAN(.T.),$);
#211=IFCCARTESIANPOINTLIST2D(((0.,0.),(0.,200.),(10000.,200.),(10000.,0.),(0.,0.)));
#212=IFCINDEXEDPOLYCURVE(#211,$,.F.);
#213=IFCDIRECTION((0.,0.,1.));
#214=IFCARBITRARYCLOSEDPROFILEDEF(.AREA.,$,#212);
#215=IFCCARTESIANPOINT((0.,0.,0.));
#216=IFCDIRECTION((0.,0.,1.));
#217=IFCDIRECTION((1.,0.,0.));
#218=IFCAXIS2PLACEMENT3D(#215,#216,#217);
#219=IFCEXTRUDEDAREASOLID(#214,#218,#213,2799.9999999999995);
#220=IFCSHAPEREPRESENTATION(#19,'Body','SweptSolid',(#219));
#221=IFCOWNERHISTORY(#3,#7,.READWRITE.,.MODIFIED.,1791558672,#3,#7,1791558672);
#222=IFCWALL('1FGGH8v$H1SxU4JktXGf05',#221,'Mur nord RDC',$,$,#233,#223,$,$);
#223=IFCPRODUCTDEFINITIONSHAPE($,$,(#220));
#229=IFCCARTESIANPOINT((0.,5799.9999998137355,0.));
#230=IFCDIRECTION((0.,0.,1.));
#231=IFCDIRECTION((1.,0.,0.));
#232=IFCAXIS2PLACEMENT3D(#229,#230,#231);
#233=IFCLOCALPLACEMENT(#91,#232);
#234=IFCOWNERHISTORY(#3,#7,.READWRITE.,.ADDED.,1791558672,#3,#7,1791558672);
#235=IFCELEMENTQUANTITY('1WgYrCduzEtwKgZvBV4jhl',#234,'Qto_WallBaseQuantities',$,'BaseQuantities',(#238,#239,#240));
#236=IFCOWNERHISTORY(#3,#7,.READWRITE.,.ADDED.,1791558672,#3,#7,1791558672);
#237=IFCRELDEFINESBYPROPERTIES('1ckdIqnEHCtvnHgT4GbZjr',#236,$,$,(#222),#235);
#238=IFCQUANTITYLENGTH('Length',$,$,10000.,$);
#239=IFCQUANTITYLENGTH('Height',$,$,2800.,$);
#240=IFCQUANTITYVOLUME('NetVolume',$,$,5.6,$);
#241=IFCCARTESIANPOINTLIST2D(((0.,0.),(0.,200.),(5599.999999999999,200.),(5599.999999999999,0.),(0.,0.)));
#242=IFCINDEXEDPOLYCURVE(#241,$,.F.);
#243=IFCDIRECTION((0.,0.,1.));
#244=IFCARBITRARYCLOSEDPROFILEDEF(.AREA.,$,#242);
#245=IFCCARTESIANPOINT((0.,0.,0.));
#246=IFCDIRECTION((0.,0.,1.));
#247=IFCDIRECTION((1.,0.,0.));
#248=IFCAXIS2PLACEMENT3D(#245,#246,#247);
#249=IFCEXTRUDEDAREASOLID(#244,#248,#243,2799.9999999999995);
#250=IFCSHAPEREPRESENTATION(#19,'Body','SweptSolid',(#249));
#251=IFCOWNERHISTORY(#3,#7,.READWRITE.,.MODIFIED.,1791558672,#3,#7,1791558672);
#252=IFCWALL('1DMRDJyj5CzwF_ATYt8ASo',#251,'Mur ouest RDC',$,$,#263,#253,$,$);
#253=IFCPRODUCTDEFINITIONSHAPE($,$,(#250));
#259=IFCCARTESIANPOINT((199.99999983701855,200.00000018626451,0.));
#260=IFCDIRECTION((0.,0.,1.));
#261=IFCDIRECTION((6.123233995736766E-17,1.,0.));
#262=IFCAXIS2PLACEMENT3D(#259,#260,#261);
#263=IFCLOCALPLACEMENT(#91,#262);
#264=IFCOWNERHISTORY(#3,#7,.READWRITE.,.ADDED.,1791558672,#3,#7,1791558672);
#265=IFCELEMENTQUANTITY('08VDn6T$5CuwGb5S1KfjXo',#264,'Qto_WallBaseQuantities',$,'BaseQuantities',(#268,#269,#270));
#266=IFCOWNERHISTORY(#3,#7,.READWRITE.,.ADDED.,1791558672,#3,#7,1791558672);
#267=IFCRELDEFINESBYPROPERTIES('0yimJEb717ERbWGl85x4a6',#266,$,$,(#252),#265);
#268=IFCQUANTITYLENGTH('Length',$,$,5600.,$);
#269=IFCQUANTITYLENGTH('Height',$,$,2800.,$);
#270=IFCQUANTITYVOLUME('NetVolume',$,$,3.136,$);
#271=IFCCARTESIANPOINTLIST2D(((0.,0.),(0.,200.),(5599.999999999999,200.),(5599.999999999999,0.),(0.,0.)));
#272=IFCINDEXEDPOLYCURVE(#271,$,.F.);
#273=IFCDIRECTION((0.,0.,1.));
#274=IFCARBITRARYCLOSEDPROFILEDEF(.AREA.,$,#272);
#275=IFCCARTESIANPOINT((0.,0.,0.));
#276=IFCDIRECTION((0.,0.,1.));
#277=IFCDIRECTION((1.,0.,0.));
#278=IFCAXIS2PLACEMENT3D(#275,#276,#277);
#279=IFCEXTRUDEDAREASOLID(#274,#278,#273,2799.9999999999995);
#280=IFCSHAPEREPRESENTATION(#19,'Body','SweptSolid',(#279));
#281=IFCOWNERHISTORY(#3,#7,.READWRITE.,.MODIFIED.,1791558672,#3,#7,1791558672);
#282=IFCWALL('2i$Jm9bwHE$h1SfnvIu7WL',#281,'Mur est RDC',$,$,#293,#283,$,$);
#283=IFCPRODUCTDEFINITIONSHAPE($,$,(#280));
#289=IFCCARTESIANPOINT((10000.,200.00000018626451,0.));
#290=IFCDIRECTION((0.,0.,1.));
#291=IFCDIRECTION((6.123233995736766E-17,1.,0.));
#292=IFCAXIS2PLACEMENT3D(#289,#290,#291);
#293=IFCLOCALPLACEMENT(#91,#292);
#294=IFCOWNERHISTORY(#3,#7,.READWRITE.,.ADDED.,1791558672,#3,#7,1791558672);
#295=IFCELEMENTQUANTITY('13zdgDPIrC2RBMSTnEOKJr',#294,'Qto_WallBaseQuantities',$,'BaseQuantities',(#298,#299,#300));
#296=IFCOWNERHISTORY(#3,#7,.READWRITE.,.ADDED.,1791558672,#3,#7,1791558672);
#297=IFCRELDEFINESBYPROPERTIES('045mfb1fLEJxYvev6ZEYBQ',#296,$,$,(#282),#295);
#298=IFCQUANTITYLENGTH('Length',$,$,5600.,$);
#299=IFCQUANTITYLENGTH('Height',$,$,2800.,$);
#300=IFCQUANTITYVOLUME('NetVolume',$,$,3.136,$);
#301=IFCOWNERHISTORY(#3,#7,.READWRITE.,.MODIFIED.,1791558672,#3,#7,1791558672);
#302=IFCCOLUMN('2UiHTnOg5EMBuBire3LqiI',#301,'Poteau RDC-1',$,$,#312,#322,$,$);
#308=IFCCARTESIANPOINT((2500.,2000.,0.));
#309=IFCDIRECTION((0.,0.,1.));
#310=IFCDIRECTION((1.,0.,0.));
#311=IFCAXIS2PLACEMENT3D(#308,#309,#310);
#312=IFCLOCALPLACEMENT(#91,#311);
#313=IFCOWNERHISTORY(#3,#7,.READWRITE.,.MODIFIED.,1791558672,#3,#7,1791558672);
#314=IFCRELDEFINESBYTYPE('06hm7RTyDF_9c90n78GeHL',#313,$,$,(#344,#690,#790,#384,#730,#324,#770,#364,#302,#710,#404,#750),#65);
#315=IFCCARTESIANPOINT((0.,0.,0.));
#316=IFCDIRECTION((1.,0.,0.));
#317=IFCDIRECTION((0.,1.,0.));
#318=IFCDIRECTION((0.,0.,1.));
#319=IFCCARTESIANTRANSFORMATIONOPERATOR3D(#316,#317,#315,1.,#318);
#320=IFCMAPPEDITEM(#80,#319);
#321=IFCSHAPEREPRESENTATION(#19,'Body','MappedRepresentation',(#320));
#322=IFCPRODUCTDEFINITIONSHAPE($,$,(#321));
#323=IFCOWNERHISTORY(#3,#7,.READWRITE.,.MODIFIED.,1791558672,#3,#7,1791558672);
#324=IFCCOLUMN('0hu7rvSVz35w1BbhUzgzkA',#323,'Poteau RDC-2',$,$,#334,#342,$,$);
#330=IFCCARTESIANPOINT((5000.,2000.,0.));
#331=IFCDIRECTION((0.,0.,1.));
#332=IFCDIRECTION((1.,0.,0.));
#333=IFCAXIS2PLACEMENT3D(#330,#331,#332);
#334=IFCLOCALPLACEMENT(#91,#333);
#335=IFCCARTESIANPOINT((0.,0.,0.));
#336=IFCDIRECTION((1.,0.,0.));
#337=IFCDIRECTION((0.,1.,0.));
#338=IFCDIRECTION((0.,0.,1.));
#339=IFCCARTESIANTRANSFORMATIONOPERATOR3D(#336,#337,#335,1.,#338);
#340=IFCMAPPEDITEM(#80,#339);
#341=IFCSHAPEREPRESENTATION(#19,'Body','MappedRepresentation',(#340));
#342=IFCPRODUCTDEFINITIONSHAPE($,$,(#341));
#343=IFCOWNERHISTORY(#3,#7,.READWRITE.,.MODIFIED.,1791558672,#3,#7,1791558672);
#344=IFCCOLUMN('1tUWowkLj68utKi9_LhTMX',#343,'Poteau RDC-3',$,$,#354,#362,$,$);
#350=IFCCARTESIANPOINT((7500.,2000.,0.));
#351=IFCDIRECTION((0.,0.,1.));
#352=IFCDIRECTION((1.,0.,0.));
#353=IFCAXIS2PLACEMENT3D(#350,#351,#352);
#354=IFCLOCALPLACEMENT(#91,#353);
#355=IFCCARTESIANPOINT((0.,0.,0.));
#356=IFCDIRECTION((1.,0.,0.));
#357=IFCDIRECTION((0.,1.,0.));
#358=IFCDIRECTION((0.,0.,1.));
#359=IFCCARTESIANTRANSFORMATIONOPERATOR3D(#356,#357,#355,1.,#358);
#360=IFCMAPPEDITEM(#80,#359);
#361=IFCSHAPEREPRESENTATION(#19,'Body','MappedRepresentation',(#360));
#362=IFCPRODUCTDEFINITIONSHAPE($,$,(#361));
#363=IFCOWNERHISTORY(#3,#7,.READWRITE.,.MODIFIED.,1791558672,#3,#7,1791558672);
#364=IFCCOLUMN('1FrT6kmEP898BFd8l4ABDA',#363,'Poteau RDC-4',$,$,#374,#382,$,$);
#370=IFCCARTESIANPOINT((2500.,4000.,0.));
#371=IFCDIRECTION((0.,0.,1.));
#372=IFCDIRECTION((1.,0.,0.));
#373=IFCAXIS2PLACEMENT3D(#370,#371,#372);
#374=IFCLOCALPLACEMENT(#91,#373);
#375=IFCCARTESIANPOINT((0.,0.,0.));
#376=IFCDIRECTION((1.,0.,0.));
#377=IFCDIRECTION((0.,1.,0.));
#378=IFCDIRECTION((0.,0.,1.));
#379=IFCCARTESIANTRANSFORMATIONOPERATOR3D(#376,#377,#375,1.,#378);
#380=IFCMAPPEDITEM(#80,#379);
#381=IFCSHAPEREPRESENTATION(#19,'Body','MappedRepresentation',(#380));
#382=IFCPRODUCTDEFINITIONSHAPE($,$,(#381));
#383=IFCOWNERHISTORY(#3,#7,.READWRITE.,.MODIFIED.,1791558672,#3,#7,1791558672);
#384=IFCCOLUMN('255cXt1n9E1uoy8WaHFrii',#383,'Poteau RDC-5',$,$,#394,#402,$,$);
#390=IFCCARTESIANPOINT((5000.,4000.,0.));
#391=IFCDIRECTION((0.,0.,1.));
#392=IFCDIRECTION((1.,0.,0.));
#393=IFCAXIS2PLACEMENT3D(#390,#391,#392);
#394=IFCLOCALPLACEMENT(#91,#393);
#395=IFCCARTESIANPOINT((0.,0.,0.));
#396=IFCDIRECTION((1.,0.,0.));
#397=IFCDIRECTION((0.,1.,0.));
#398=IFCDIRECTION((0.,0.,1.));
#399=IFCCARTESIANTRANSFORMATIONOPERATOR3D(#396,#397,#395,1.,#398);
#400=IFCMAPPEDITEM(#80,#399);
#401=IFCSHAPEREPRESENTATION(#19,'Body','MappedRepresentation',(#400));
#402=IFCPRODUCTDEFINITIONSHAPE($,$,(#401));
#403=IFCOWNERHISTORY(#3,#7,.READWRITE.,.MODIFIED.,1791558672,#3,#7,1791558672);
#404=IFCCOLUMN('3IzRXR221DjPPdX1QSSOVq',#403,'Poteau RDC-6',$,$,#414,#422,$,$);
#410=IFCCARTESIANPOINT((7500.,4000.,0.));
#411=IFCDIRECTION((0.,0.,1.));
#412=IFCDIRECTION((1.,0.,0.));
#413=IFCAXIS2PLACEMENT3D(#410,#411,#412);
#414=IFCLOCALPLACEMENT(#91,#413);
#415=IFCCARTESIANPOINT((0.,0.,0.));
#416=IFCDIRECTION((1.,0.,0.));
#417=IFCDIRECTION((0.,1.,0.));
#418=IFCDIRECTION((0.,0.,1.));
#419=IFCCARTESIANTRANSFORMATIONOPERATOR3D(#416,#417,#415,1.,#418);
#420=IFCMAPPEDITEM(#80,#419);
#421=IFCSHAPEREPRESENTATION(#19,'Body','MappedRepresentation',(#420));
#422=IFCPRODUCTDEFINITIONSHAPE($,$,(#421));
#423=IFCCARTESIANPOINTLIST2D(((0.,0.),(0.,40.),(900.,40.),(900.,0.),(0.,0.)));
#424=IFCINDEXEDPOLYCURVE(#423,$,.F.);
#425=IFCDIRECTION((0.,0.,1.));
#426=IFCARBITRARYCLOSEDPROFILEDEF(.AREA.,$,#424);
#427=IFCCARTESIANPOINT((0.,0.,0.));
#428=IFCDIRECTION((0.,0.,1.));
#429=IFCDIRECTION((1.,0.,0.));
#430=IFCAXIS2PLACEMENT3D(#427,#428,#429);
#431=IFCEXTRUDEDAREASOLID(#426,#430,#425,2100.);
#432=IFCSHAPEREPRESENTATION(#19,'Body','SweptSolid',(#431));
#433=IFCOWNERHISTORY(#3,#7,.READWRITE.,.MODIFIED.,1791558672,#3,#7,1791558672);
#434=IFCDOOR('1PcjpvJdf5Ew0mPWZ7Q73v',#433,'Porte RDC',$,$,#445,#435,$,$,$,$,$,$);
#435=IFCPRODUCTDEFINITIONSHAPE($,$,(#432));
#441=IFCCARTESIANPOINT((6500.,2980.000000447035,0.));
#442=IFCDIRECTION((0.,0.,1.));
#443=IFCDIRECTION((1.,0.,0.));
#444=IFCAXIS2PLACEMENT3D(#441,#442,#443);
#445=IFCLOCALPLACEMENT(#91,#444);
#446=IFCOWNERHISTORY(#3,#7,.READWRITE.,.MODIFIED.,1791558672,#3,#7,1791558672);
#447=IFCRELASSOCIATESMATERIAL('0IwImyNvH5MwfUGIhEEXlf',#446,$,$,(#434,#820),#43);
#448=IFCOWNERHISTORY(#3,#7,.READWRITE.,.ADDED.,1791558672,#3,#7,1791558672);
#449=IFCPROPERTYSET('3ndMTOmKn87OFtZUMMiOE2',#448,'Pset_DoorCommon',$,(#452,#453));
#450=IFCOWNERHISTORY(#3,#7,.READWRITE.,.ADDED.,1791558672,#3,#7,1791558672);
#451=IFCRELDEFINESBYPROPERTIES('1YkjWmx9nBHhAnNd1csXc9',#450,$,$,(#434),#449);
#452=IFCPROPERTYSINGLEVALUE('FireRating',$,IFCLABEL('EI 30'),$);
#453=IFCPROPERTYSINGLEVALUE('IsExternal',$,IFCBOOLEAN(.F.),$);
#454=IFCCARTESIANPOINTLIST2D(((0.,0.),(0.,5400.),(9600.,5400.),(9600.,0.),(0.,0.)));
#455=IFCINDEXEDPOLYCURVE(#454,$,.F.);
#456=IFCDIRECTION((0.,0.,1.));
#457=IFCARBITRARYCLOSEDPROFILEDEF(.AREA.,$,#455);
#458=IFCCARTESIANPOINT((0.,0.,0.));
#459=IFCDIRECTION((0.,0.,1.));
#460=IFCDIRECTION((1.,0.,0.));
#461=IFCAXIS2PLACEMENT3D(#458,#459,#460);
#462=IFCEXTRUDEDAREASOLID(#457,#461,#456,2799.9999999999995);
#463=IFCSHAPEREPRESENTATION(#19,'Body','SweptSolid',(#462));
#464=IFCOWNERHISTORY(#3,#7,.READWRITE.,.MODIFIED.,1791558672,#3,#7,1791558672);
#465=IFCSPACE('2U77EKKrP4vOUo$b6VVMa9',#464,'Plateau RDC',$,$,#478,#466,'Plateau de bureaux',$,$,$);
#466=IFCPRODUCTDEFINITIONSHAPE($,$,(#463));
#472=IFCOWNERHISTORY(#3,#7,.READWRITE.,.ADDED.,1791558672,#3,#7,1791558672);
#473=IFCRELAGGREGATES('3vk1YPOm11dAok7BZ6g4U_',#472,$,$,#84,(#465));
#474=IFCCARTESIANPOINT((199.99999983701855,200.00000018626451,0.));
#475=IFCDIRECTION((0.,0.,1.));
#476=IFCDIRECTION((1.,0.,0.));
#477=IFCAXIS2PLACEMENT3D(#474,#475,#476);
#478=IFCLOCALPLACEMENT(#91,#477);
#479=IFCOWNERHISTORY(#3,#7,.READWRITE.,.MODIFIED.,1791558672,#3,#7,1791558672);
#480=IFCBUILDINGSTOREY('1r00QS6J957BoijZ9EYZjR',#479,'R+1',$,$,#485,$,$,$,$);
#481=IFCCARTESIANPOINT((651200000.,6861500000.,38000.));
#482=IFCDIRECTION((0.,0.,1.));
#483=IFCDIRECTION((1.,0.,0.));
#484=IFCAXIS2PLACEMENT3D(#481,#482,#483);
#485=IFCLOCALPLACEMENT($,#484);
#486=IFCCARTESIANPOINTLIST2D(((0.,0.),(10000.,0.),(10000.,6000.),(0.,6000.)));
#487=IFCINDEXEDPOLYCURVE(#486,$,$);
#488=IFCDIRECTION((0.,0.,1.));
#489=IFCARBITRARYCLOSEDPROFILEDEF(.AREA.,$,#487);
#490=IFCEXTRUDEDAREASOLID(#489,$,#488,200.);
#491=IFCSHAPEREPRESENTATION(#19,'Body','SweptSolid',(#490));
#492=IFCOWNERHISTORY(#3,#7,.READWRITE.,.MODIFIED.,1791558672,#3,#7,1791558672);
#493=IFCSLAB('0gbaHo4C1DHe4Qarw8GtDt',#492,'Dalle R+1',$,$,#506,#494,$,$);
#494=IFCPRODUCTDEFINITIONSHAPE($,$,(#491));
#500=IFCOWNERHISTORY(#3,#7,.READWRITE.,.MODIFIED.,1791558672,#3,#7,1791558672);
#501=IFCRELCONTAINEDINSPATIALSTRUCTURE('2sKnOam6L6_gssPmur1X_O',#500,$,$,(#690,#820,#790,#730,#670,#580,#640,#610,#770,#710,#525,#493,#750),#480);
#502=IFCCARTESIANPOINT((0.,0.,-199.99999999999574));
#503=IFCDIRECTION((0.,0.,1.));
#504=IFCDIRECTION((1.,0.,0.));
#505=IFCAXIS2PLACEMENT3D(#502,#503,#504);
#506=IFCLOCALPLACEMENT(#485,#505);
#507=IFCOWNERHISTORY(#3,#7,.READWRITE.,.ADDED.,1791558672,#3,#7,1791558672);
#508=IFCELEMENTQUANTITY('1Fp79yFKP9cAXuZvqWOYPY',#507,'Qto_SlabBaseQuantities',$,'BaseQuantities',(#511,#512,#513));
#509=IFCOWNERHISTORY(#3,#7,.READWRITE.,.ADDED.,1791558672,#3,#7,1791558672);
#510=IFCRELDEFINESBYPROPERTIES('2R$ZW4XrP13eh64jcdLq6H',#509,$,$,(#493),#508);
#511=IFCQUANTITYVOLUME('NetVolume',$,$,12.,$);
#512=IFCQUANTITYAREA('NetArea',$,$,60.,$);
#513=IFCQUANTITYLENGTH('Depth',$,$,200.,$);
#514=IFCCARTESIANPOINTLIST2D(((0.,0.),(0.,200.),(10000.,200.),(10000.,0.),(0.,0.)));
#515=IFCINDEXEDPOLYCURVE(#514,$,.F.);
#516=IFCDIRECTION((0.,0.,1.));
#517=IFCARBITRARYCLOSEDPROFILEDEF(.AREA.,$,#515);
#518=IFCCARTESIANPOINT((0.,0.,0.));
#519=IFCDIRECTION((0.,0.,1.));
#520=IFCDIRECTION((1.,0.,0.));
#521=IFCAXIS2PLACEMENT3D(#518,#519,#520);
#522=IFCEXTRUDEDAREASOLID(#517,#521,#516,2799.9999999999995);
#523=IFCSHAPEREPRESENTATION(#19,'Body','SweptSolid',(#522));
#524=IFCOWNERHISTORY(#3,#7,.READWRITE.,.MODIFIED.,1791558672,#3,#7,1791558672);
#525=IFCWALL('2n5g_ZiGn8gfctfvez3Kgy',#524,'Mur sud R+1',$,$,#536,#526,$,$);
#526=IFCPRODUCTDEFINITIONSHAPE($,$,(#523));
#532=IFCCARTESIANPOINT((0.,0.,0.));
#533=IFCDIRECTION((0.,0.,1.));
#534=IFCDIRECTION((1.,0.,0.));
#535=IFCAXIS2PLACEMENT3D(#532,#533,#534);
#536=IFCLOCALPLACEMENT(#485,#535);
#537=IFCOWNERHISTORY(#3,#7,.READWRITE.,.ADDED.,1791558672,#3,#7,1791558672);
#538=IFCELEMENTQUANTITY('3yhsmcrV9FI8b2b91QcaVP',#537,'Qto_WallBaseQuantities',$,'BaseQuantities',(#541,#542,#543));
#539=IFCOWNERHISTORY(#3,#7,.READWRITE.,.ADDED.,1791558672,#3,#7,1791558672);
#540=IFCRELDEFINESBYPROPERTIES('2TBxLtFKH8XfjKRi6WAjGh',#539,$,$,(#525),#538);
#541=IFCQUANTITYLENGTH('Length',$,$,10000.,$);
#542=IFCQUANTITYLENGTH('Height',$,$,2800.,$);
#543=IFCQUANTITYVOLUME('NetVolume',$,$,5.6,$);
#544=IFCOWNERHISTORY(#3,#7,.READWRITE.,.MODIFIED.,1791558672,#3,#7,1791558672);
#545=IFCOPENINGELEMENT('0ilh4yEXXEBx5lkxOP2y_b',#544,'R\X2\00E9\X0\servation fen\X2\00EA\X0\tre',$,$,#568,#556,$,$);
#546=IFCCARTESIANPOINTLIST2D(((0.,0.),(0.,400.),(1600.,400.),(1600.,0.),(0.,0.)));
#547=IFCINDEXEDPOLYCURVE(#546,$,.F.);
#548=IFCDIRECTION((0.,0.,1.));
#549=IFCARBITRARYCLOSEDPROFILEDEF(.AREA.,$,#547);
#550=IFCCARTESIANPOINT((0.,0.,0.));
#551=IFCDIRECTION((0.,0.,1.));
#552=IFCDIRECTION((1.,0.,0.));
#553=IFCAXIS2PLACEMENT3D(#550,#551,#552);
#554=IFCEXTRUDEDAREASOLID(#549,#553,#548,1300.);
#555=IFCSHAPEREPRESENTATION(#19,'Body','SweptSolid',(#554));
#556=IFCPRODUCTDEFINITIONSHAPE($,$,(#555));
#562=IFCOWNERHISTORY(#3,#7,.READWRITE.,.ADDED.,1791558672,#3,#7,1791558672);
#563=IFCRELVOIDSELEMENT('3GWdxxW6rDuuizE1$iHtCH',#562,$,$,#525,#545);
#564=IFCCARTESIANPOINT((4199.999999837019,-99.99999962747097,899.9999999999985));
#565=IFCDIRECTION((0.,0.,1.));
#566=IFCDIRECTION((1.,0.,0.));
#567=IFCAXIS2PLACEMENT3D(#564,#565,#566);
#568=IFCLOCALPLACEMENT(#536,#567);
#569=IFCCARTESIANPOINTLIST2D(((0.,0.),(0.,50.),(1600.,50.),(1600.,0.),(0.,0.)));
#570=IFCINDEXEDPOLYCURVE(#569,$,.F.);
#571=IFCDIRECTION((0.,0.,1.));
#572=IFCARBITRARYCLOSEDPROFILEDEF(.AREA.,$,#570);
#573=IFCCARTESIANPOINT((0.,0.,0.));
#574=IFCDIRECTION((0.,0.,1.));
#575=IFCDIRECTION((1.,0.,0.));
#576=IFCAXIS2PLACEMENT3D(#573,#574,#575);
#577=IFCEXTRUDEDAREASOLID(#572,#576,#571,1300.);
#578=IFCSHAPEREPRESENTATION(#19,'Body','SweptSolid',(#577));
#579=IFCOWNERHISTORY(#3,#7,.READWRITE.,.MODIFIED.,1791558672,#3,#7,1791558672);
#580=IFCWINDOW('3Qw1SDQ89AEwhg7VOozFxc',#579,'Fen\X2\00EA\X0\tre R+1',$,$,#591,#581,$,$,$,$,$,$);
#581=IFCPRODUCTDEFINITIONSHAPE($,$,(#578));
#587=IFCCARTESIANPOINT((4199.999999837019,75.00000018626451,899.9999999999985));
#588=IFCDIRECTION((0.,0.,1.));
#589=IFCDIRECTION((1.,0.,0.));
#590=IFCAXIS2PLACEMENT3D(#587,#588,#589);
#591=IFCLOCALPLACEMENT(#485,#590);
#592=IFCRELFILLSELEMENT('1LFRJTgJ99JPG0osxkXbaC',$,$,$,#545,#580);
#593=IFCOWNERHISTORY(#3,#7,.READWRITE.,.ADDED.,1791558672,#3,#7,1791558672);
#594=IFCPROPERTYSET('2xrZL0FwLDMPg_FihnHojd',#593,'Pset_WindowCommon',$,(#597,#598));
#595=IFCOWNERHISTORY(#3,#7,.READWRITE.,.ADDED.,1791558672,#3,#7,1791558672);
#596=IFCRELDEFINESBYPROPERTIES('1VzGeySGL6_8k6GB_qv3VT',#595,$,$,(#580),#594);
#597=IFCPROPERTYSINGLEVALUE('ThermalTransmittance',$,IFCTHERMALTRANSMITTANCEMEASURE(1.3),$);
#598=IFCPROPERTYSINGLEVALUE('IsExternal',$,IFCBOOLEAN(.T.),$);
#599=IFCCARTESIANPOINTLIST2D(((0.,0.),(0.,200.),(10000.,200.),(10000.,0.),(0.,0.)));
#600=IFCINDEXEDPOLYCURVE(#599,$,.F.);
#601=IFCDIRECTION((0.,0.,1.));
#602=IFCARBITRARYCLOSEDPROFILEDEF(.AREA.,$,#600);
#603=IFCCARTESIANPOINT((0.,0.,0.));
#604=IFCDIRECTION((0.,0.,1.));
#605=IFCDIRECTION((1.,0.,0.));
#606=IFCAXIS2PLACEMENT3D(#603,#604,#605);
#607=IFCEXTRUDEDAREASOLID(#602,#606,#601,2799.9999999999995);
#608=IFCSHAPEREPRESENTATION(#19,'Body','SweptSolid',(#607));
#609=IFCOWNERHISTORY(#3,#7,.READWRITE.,.MODIFIED.,1791558672,#3,#7,1791558672);
#610=IFCWALL('0qp14HY6j7rxgLtWyvX5b6',#609,'Mur nord R+1',$,$,#621,#611,$,$);
#611=IFCPRODUCTDEFINITIONSHAPE($,$,(#608));
#617=IFCCARTESIANPOINT((0.,5799.9999998137355,0.));
#618=IFCDIRECTION((0.,0.,1.));
#619=IFCDIRECTION((1.,0.,0.));
#620=IFCAXIS2PLACEMENT3D(#617,#618,#619);
#621=IFCLOCALPLACEMENT(#485,#620);
#622=IFCOWNERHISTORY(#3,#7,.READWRITE.,.ADDED.,1791558672,#3,#7,1791558672);
#623=IFCELEMENTQUANTITY('2yQqgskwjCHOSsvqt9fpTR',#622,'Qto_WallBaseQuantities',$,'BaseQuantities',(#626,#627,#628));
#624=IFCOWNERHISTORY(#3,#7,.READWRITE.,.ADDED.,1791558672,#3,#7,1791558672);
#625=IFCRELDEFINESBYPROPERTIES('0mx3xJ4Un6F8iSDJF44xCV',#624,$,$,(#610),#623);
#626=IFCQUANTITYLENGTH('Length',$,$,10000.,$);
#627=IFCQUANTITYLENGTH('Height',$,$,2800.,$);
#628=IFCQUANTITYVOLUME('NetVolume',$,$,5.6,$);
#629=IFCCARTESIANPOINTLIST2D(((0.,0.),(0.,200.),(5599.999999999999,200.),(5599.999999999999,0.),(0.,0.)));
#630=IFCINDEXEDPOLYCURVE(#629,$,.F.);
#631=IFCDIRECTION((0.,0.,1.));
#632=IFCARBITRARYCLOSEDPROFILEDEF(.AREA.,$,#630);
#633=IFCCARTESIANPOINT((0.,0.,0.));
#634=IFCDIRECTION((0.,0.,1.));
#635=IFCDIRECTION((1.,0.,0.));
#636=IFCAXIS2PLACEMENT3D(#633,#634,#635);
#637=IFCEXTRUDEDAREASOLID(#632,#636,#631,2799.9999999999995);
#638=IFCSHAPEREPRESENTATION(#19,'Body','SweptSolid',(#637));
#639=IFCOWNERHISTORY(#3,#7,.READWRITE.,.MODIFIED.,1791558672,#3,#7,1791558672);
#640=IFCWALL('1IX3i1p6XAS9dS6Qnqpqol',#639,'Mur ouest R+1',$,$,#651,#641,$,$);
#641=IFCPRODUCTDEFINITIONSHAPE($,$,(#638));
#647=IFCCARTESIANPOINT((199.99999983701855,200.00000018626451,0.));
#648=IFCDIRECTION((0.,0.,1.));
#649=IFCDIRECTION((6.123233995736766E-17,1.,0.));
#650=IFCAXIS2PLACEMENT3D(#647,#648,#649);
#651=IFCLOCALPLACEMENT(#485,#650);
#652=IFCOWNERHISTORY(#3,#7,.READWRITE.,.ADDED.,1791558672,#3,#7,1791558672);
#653=IFCELEMENTQUANTITY('0NRzvmstX2Ren6AhRDB$Bd',#652,'Qto_WallBaseQuantities',$,'BaseQuantities',(#656,#657,#658));
#654=IFCOWNERHISTORY(#3,#7,.READWRITE.,.ADDED.,1791558672,#3,#7,1791558672);
#655=IFCRELDEFINESBYPROPERTIES('2LJ5BLiv114uUaLEISyJvM',#654,$,$,(#640),#653);
#656=IFCQUANTITYLENGTH('Length',$,$,5600.,$);
#657=IFCQUANTITYLENGTH('Height',$,$,2800.,$);
#658=IFCQUANTITYVOLUME('NetVolume',$,$,3.136,$);
#659=IFCCARTESIANPOINTLIST2D(((0.,0.),(0.,200.),(5599.999999999999,200.),(5599.999999999999,0.),(0.,0.)));
#660=IFCINDEXEDPOLYCURVE(#659,$,.F.);
#661=IFCDIRECTION((0.,0.,1.));
#662=IFCARBITRARYCLOSEDPROFILEDEF(.AREA.,$,#660);
#663=IFCCARTESIANPOINT((0.,0.,0.));
#664=IFCDIRECTION((0.,0.,1.));
#665=IFCDIRECTION((1.,0.,0.));
#666=IFCAXIS2PLACEMENT3D(#663,#664,#665);
#667=IFCEXTRUDEDAREASOLID(#662,#666,#661,2799.9999999999995);
#668=IFCSHAPEREPRESENTATION(#19,'Body','SweptSolid',(#667));
#669=IFCOWNERHISTORY(#3,#7,.READWRITE.,.MODIFIED.,1791558672,#3,#7,1791558672);
#670=IFCWALL('1jhPBzStX8WhUVM7Ele7FA',#669,'Mur est R+1',$,$,#681,#671,$,$);
#671=IFCPRODUCTDEFINITIONSHAPE($,$,(#668));
#677=IFCCARTESIANPOINT((10000.,200.00000018626451,0.));
#678=IFCDIRECTION((0.,0.,1.));
#679=IFCDIRECTION((6.123233995736766E-17,1.,0.));
#680=IFCAXIS2PLACEMENT3D(#677,#678,#679);
#681=IFCLOCALPLACEMENT(#485,#680);
#682=IFCOWNERHISTORY(#3,#7,.READWRITE.,.ADDED.,1791558672,#3,#7,1791558672);
#683=IFCELEMENTQUANTITY('3dH$LZFHnCVR$prXRH11A2',#682,'Qto_WallBaseQuantities',$,'BaseQuantities',(#686,#687,#688));
#684=IFCOWNERHISTORY(#3,#7,.READWRITE.,.ADDED.,1791558672,#3,#7,1791558672);
#685=IFCRELDEFINESBYPROPERTIES('2sqzqNuxbFbghw7rTMTat2',#684,$,$,(#670),#683);
#686=IFCQUANTITYLENGTH('Length',$,$,5600.,$);
#687=IFCQUANTITYLENGTH('Height',$,$,2800.,$);
#688=IFCQUANTITYVOLUME('NetVolume',$,$,3.136,$);
#689=IFCOWNERHISTORY(#3,#7,.READWRITE.,.MODIFIED.,1791558672,#3,#7,1791558672);
#690=IFCCOLUMN('18oeHRrsfATel4S$SYmlSQ',#689,'Poteau R+1-1',$,$,#700,#708,$,$);
#696=IFCCARTESIANPOINT((2500.,2000.,0.));
#697=IFCDIRECTION((0.,0.,1.));
#698=IFCDIRECTION((1.,0.,0.));
#699=IFCAXIS2PLACEMENT3D(#696,#697,#698);
#700=IFCLOCALPLACEMENT(#485,#699);
#701=IFCCARTESIANPOINT((0.,0.,0.));
#702=IFCDIRECTION((1.,0.,0.));
#703=IFCDIRECTION((0.,1.,0.));
#704=IFCDIRECTION((0.,0.,1.));
#705=IFCCARTESIANTRANSFORMATIONOPERATOR3D(#702,#703,#701,1.,#704);
#706=IFCMAPPEDITEM(#80,#705);
#707=IFCSHAPEREPRESENTATION(#19,'Body','MappedRepresentation',(#706));
#708=IFCPRODUCTDEFINITIONSHAPE($,$,(#707));
#709=IFCOWNERHISTORY(#3,#7,.READWRITE.,.MODIFIED.,1791558672,#3,#7,1791558672);
#710=IFCCOLUMN('1$Nx3X6sH74PLSCy__d4nh',#709,'Poteau R+1-2',$,$,#720,#728,$,$);
#716=IFCCARTESIANPOINT((5000.,2000.,0.));
#717=IFCDIRECTION((0.,0.,1.));
#718=IFCDIRECTION((1.,0.,0.));
#719=IFCAXIS2PLACEMENT3D(#716,#717,#718);
#720=IFCLOCALPLACEMENT(#485,#719);
#721=IFCCARTESIANPOINT((0.,0.,0.));
#722=IFCDIRECTION((1.,0.,0.));
#723=IFCDIRECTION((0.,1.,0.));
#724=IFCDIRECTION((0.,0.,1.));
#725=IFCCARTESIANTRANSFORMATIONOPERATOR3D(#722,#723,#721,1.,#724);
#726=IFCMAPPEDITEM(#80,#725);
#727=IFCSHAPEREPRESENTATION(#19,'Body','MappedRepresentation',(#726));
#728=IFCPRODUCTDEFINITIONSHAPE($,$,(#727));
#729=IFCOWNERHISTORY(#3,#7,.READWRITE.,.MODIFIED.,1791558672,#3,#7,1791558672);
#730=IFCCOLUMN('2YLEi4PhjD_PZUnYrIZInV',#729,'Poteau R+1-3',$,$,#740,#748,$,$);
#736=IFCCARTESIANPOINT((7500.,2000.,0.));
#737=IFCDIRECTION((0.,0.,1.));
#738=IFCDIRECTION((1.,0.,0.));
#739=IFCAXIS2PLACEMENT3D(#736,#737,#738);
#740=IFCLOCALPLACEMENT(#485,#739);
#741=IFCCARTESIANPOINT((0.,0.,0.));
#742=IFCDIRECTION((1.,0.,0.));
#743=IFCDIRECTION((0.,1.,0.));
#744=IFCDIRECTION((0.,0.,1.));
#745=IFCCARTESIANTRANSFORMATIONOPERATOR3D(#742,#743,#741,1.,#744);
#746=IFCMAPPEDITEM(#80,#745);
#747=IFCSHAPEREPRESENTATION(#19,'Body','MappedRepresentation',(#746));
#748=IFCPRODUCTDEFINITIONSHAPE($,$,(#747));
#749=IFCOWNERHISTORY(#3,#7,.READWRITE.,.MODIFIED.,1791558672,#3,#7,1791558672);
#750=IFCCOLUMN('1yW2ZktHr38AvlNabf$s6c',#749,'Poteau R+1-4',$,$,#760,#768,$,$);
#756=IFCCARTESIANPOINT((2500.,4000.,0.));
#757=IFCDIRECTION((0.,0.,1.));
#758=IFCDIRECTION((1.,0.,0.));
#759=IFCAXIS2PLACEMENT3D(#756,#757,#758);
#760=IFCLOCALPLACEMENT(#485,#759);
#761=IFCCARTESIANPOINT((0.,0.,0.));
#762=IFCDIRECTION((1.,0.,0.));
#763=IFCDIRECTION((0.,1.,0.));
#764=IFCDIRECTION((0.,0.,1.));
#765=IFCCARTESIANTRANSFORMATIONOPERATOR3D(#762,#763,#761,1.,#764);
#766=IFCMAPPEDITEM(#80,#765);
#767=IFCSHAPEREPRESENTATION(#19,'Body','MappedRepresentation',(#766));
#768=IFCPRODUCTDEFINITIONSHAPE($,$,(#767));
#769=IFCOWNERHISTORY(#3,#7,.READWRITE.,.MODIFIED.,1791558672,#3,#7,1791558672);
#770=IFCCOLUMN('2q6VYppOr5FBGeqiAqz_vR',#769,'Poteau R+1-5',$,$,#780,#788,$,$);
#776=IFCCARTESIANPOINT((5000.,4000.,0.));
#777=IFCDIRECTION((0.,0.,1.));
#778=IFCDIRECTION((1.,0.,0.));
#779=IFCAXIS2PLACEMENT3D(#776,#777,#778);
#780=IFCLOCALPLACEMENT(#485,#779);
#781=IFCCARTESIANPOINT((0.,0.,0.));
#782=IFCDIRECTION((1.,0.,0.));
#783=IFCDIRECTION((0.,1.,0.));
#784=IFCDIRECTION((0.,0.,1.));
#785=IFCCARTESIANTRANSFORMATIONOPERATOR3D(#782,#783,#781,1.,#784);
#786=IFCMAPPEDITEM(#80,#785);
#787=IFCSHAPEREPRESENTATION(#19,'Body','MappedRepresentation',(#786));
#788=IFCPRODUCTDEFINITIONSHAPE($,$,(#787));
#789=IFCOWNERHISTORY(#3,#7,.READWRITE.,.MODIFIED.,1791558672,#3,#7,1791558672);
#790=IFCCOLUMN('0I4khM3RH8I8FDibp5rT6G',#789,'Poteau R+1-6',$,$,#800,#808,$,$);
#796=IFCCARTESIANPOINT((7500.,4000.,0.));
#797=IFCDIRECTION((0.,0.,1.));
#798=IFCDIRECTION((1.,0.,0.));
#799=IFCAXIS2PLACEMENT3D(#796,#797,#798);
#800=IFCLOCALPLACEMENT(#485,#799);
#801=IFCCARTESIANPOINT((0.,0.,0.));
#802=IFCDIRECTION((1.,0.,0.));
#803=IFCDIRECTION((0.,1.,0.));
#804=IFCDIRECTION((0.,0.,1.));
#805=IFCCARTESIANTRANSFORMATIONOPERATOR3D(#802,#803,#801,1.,#804);
#806=IFCMAPPEDITEM(#80,#805);
#807=IFCSHAPEREPRESENTATION(#19,'Body','MappedRepresentation',(#806));
#808=IFCPRODUCTDEFINITIONSHAPE($,$,(#807));
#809=IFCCARTESIANPOINTLIST2D(((0.,0.),(0.,40.),(900.,40.),(900.,0.),(0.,0.)));
#810=IFCINDEXEDPOLYCURVE(#809,$,.F.);
#811=IFCDIRECTION((0.,0.,1.));
#812=IFCARBITRARYCLOSEDPROFILEDEF(.AREA.,$,#810);
#813=IFCCARTESIANPOINT((0.,0.,0.));
#814=IFCDIRECTION((0.,0.,1.));
#815=IFCDIRECTION((1.,0.,0.));
#816=IFCAXIS2PLACEMENT3D(#813,#814,#815);
#817=IFCEXTRUDEDAREASOLID(#812,#816,#811,2100.);
#818=IFCSHAPEREPRESENTATION(#19,'Body','SweptSolid',(#817));
#819=IFCOWNERHISTORY(#3,#7,.READWRITE.,.MODIFIED.,1791558672,#3,#7,1791558672);
#820=IFCDOOR('3zOgeS67H2oheri2RT4ctF',#819,'Porte R+1',$,$,#831,#821,$,$,$,$,$,$);
#821=IFCPRODUCTDEFINITIONSHAPE($,$,(#818));
#827=IFCCARTESIANPOINT((6500.,2980.000000447035,0.));
#828=IFCDIRECTION((0.,0.,1.));
#829=IFCDIRECTION((1.,0.,0.));
#830=IFCAXIS2PLACEMENT3D(#827,#828,#829);
#831=IFCLOCALPLACEMENT(#485,#830);
#832=IFCOWNERHISTORY(#3,#7,.READWRITE.,.ADDED.,1791558672,#3,#7,1791558672);
#833=IFCPROPERTYSET('0ytoEQVYzBvvC28yDvbmF3',#832,'Pset_DoorCommon',$,(#836,#837));
#834=IFCOWNERHISTORY(#3,#7,.READWRITE.,.ADDED.,1791558672,#3,#7,1791558672);
#835=IFCRELDEFINESBYPROPERTIES('0WdJUgWSn1EvtusNfJl4$e',#834,$,$,(#820),#833);
#836=IFCPROPERTYSINGLEVALUE('FireRating',$,IFCLABEL('EI 30'),$);
#837=IFCPROPERTYSINGLEVALUE('IsExternal',$,IFCBOOLEAN(.F.),$);
#838=IFCCARTESIANPOINTLIST2D(((0.,0.),(0.,5400.),(9600.,5400.),(9600.,0.),(0.,0.)));
#839=IFCINDEXEDPOLYCURVE(#838,$,.F.);
#840=IFCDIRECTION((0.,0.,1.));
#841=IFCARBITRARYCLOSEDPROFILEDEF(.AREA.,$,#839);
#842=IFCCARTESIANPOINT((0.,0.,0.));
#843=IFCDIRECTION((0.,0.,1.));
#844=IFCDIRECTION((1.,0.,0.));
#845=IFCAXIS2PLACEMENT3D(#842,#843,#844);
#846=IFCEXTRUDEDAREASOLID(#841,#845,#840,2799.9999999999995);
#847=IFCSHAPEREPRESENTATION(#19,'Body','SweptSolid',(#846));
#848=IFCOWNERHISTORY(#3,#7,.READWRITE.,.MODIFIED.,1791558672,#3,#7,1791558672);
#849=IFCSPACE('16xDP48e90MeByThd4roxL',#848,'Plateau R+1',$,$,#862,#850,'Plateau de bureaux',$,$,$);
#850=IFCPRODUCTDEFINITIONSHAPE($,$,(#847));
#856=IFCOWNERHISTORY(#3,#7,.READWRITE.,.ADDED.,1791558672,#3,#7,1791558672);
#857=IFCRELAGGREGATES('0RdkOud8PBYO5Gf4Jcpb8x',#856,$,$,#480,(#849));
#858=IFCCARTESIANPOINT((199.99999983701855,200.00000018626451,0.));
#859=IFCDIRECTION((0.,0.,1.));
#860=IFCDIRECTION((1.,0.,0.));
#861=IFCAXIS2PLACEMENT3D(#858,#859,#860);
#862=IFCLOCALPLACEMENT(#485,#861);
#863=IFCOWNERHISTORY(#3,#7,.READWRITE.,.MODIFIED.,1791558672,#3,#7,1791558672);
#864=IFCGRID('1YYEbTWR15TPYd65HhBLuS',#863,'Trame',$,$,#878,#873,(#868),(#870),$,$);
#865=IFCCARTESIANPOINT((0.,0.));
#866=IFCCARTESIANPOINT((10000.,0.));
#867=IFCPOLYLINE((#865,#866));
#868=IFCGRIDAXIS('A',#867,.T.);
#869=IFCPOLYLINE((#866,#865));
#870=IFCGRIDAXIS('1',#869,.T.);
#871=IFCGEOMETRICCURVESET((#867));
#872=IFCSHAPEREPRESENTATION(#19,'FootPrint','GeometricCurveSet',(#871));
#873=IFCPRODUCTDEFINITIONSHAPE($,$,(#872));
#874=IFCCARTESIANPOINT((651200000.,6861500000.,35000.));
#875=IFCDIRECTION((0.,0.,1.));
#876=IFCDIRECTION((1.,0.,0.));
#877=IFCAXIS2PLACEMENT3D(#874,#875,#876);
#878=IFCLOCALPLACEMENT($,#877);
ENDSEC;
END-ISO-10303-21;
